# xmcd CD database file generated by OrangeCD 4.3
#
# Track frame offsets:
#	150
#	23037
#	44137
#	68361
#	83394
#	114585
#	139592
#	161354
#	225301
#	249458
#
# Disc length: 3545 seconds
#
# Revision: 0
# Processed by: cddbd v1.4PL0 Copyright (c) Steve Scherf et al.
# Submitted via: OrangeCD 4.3
#
DISCID=6d0dd70a
DTITLE=Howlin' Wolf and the Wolf Gang - Ebbets Field, Denver, CO 8/23/73
DYEAR=1900
DGENRE=
TTITLE0=Instrumental
TTITLE1=Instrumental
TTITLE2=Your Love is Creeping Away From Me
TTITLE3=Baby Workout
TTITLE4=How Blue Can You Get
TTITLE5=What'd I Say
TTITLE6=Little Red Rooster
TTITLE7=Going Down Slow > Killing Floor
TTITLE8=Shake for Me
TTITLE9=Instrumental/Goodnights
EXTD=
EXTT0=
EXTT1=
EXTT2=
EXTT3=
EXTT4=
EXTT5=
EXTT6=
EXTT7=
EXTT8=
EXTT9=
PLAYORDER=
